# xmcd
#
# Track frame offsets:
#   150
#   14972
#   33653
#   45716
#   73408
#   85081
#   101474
#   119568
#   137771
#   152726
#   168026
#   187914
#   201143
#   219593
#   235859
#
# Disc length: 3435 seconds
#
# Revision: 0
# Processed by: cddbd v1.4PL0 Copyright (c) Steve Scherf et al.
# Submitted via: uFREEDB 1.6.0
#
DISCID=d50d690f
DTITLE=Various Artist - Poet: Tribute To Townes Van Zandt
DYEAR=2001
DGENRE=Country
TTITLE0=Guy Clark /
TTITLE1=Nanci Griffith /
TTITLE2=Billy Joe Shaver /
TTITLE3=Cowboy Junkies /
TTITLE4=Emmylou Harris /
TTITLE5=Ray Benson /
TTITLE6=John Prine /
TTITLE7=Lucinda Williams /
TTITLE8=The Flatlanders /
TTITLE9=Robert Earl Keen /
TTITLE10=Steve Earle And The Dukes /
TTITLE11=Willie Nelson /
TTITLE12=Delbert McClinton /
TTITLE13=Pat Haney /
TTITLE14=John T. Van Zandt /
EXTD=
EXTT0=
EXTT1=
EXTT2=
EXTT3=
EXTT4=
EXTT5=
EXTT6=
EXTT7=
EXTT8=
EXTT9=
EXTT10=
EXTT11=
EXTT12=
EXTT13=
EXTT14=
PLAYORDER=
